<svg xmlns="http://www.w3.org/2000/svg" viewBox="0 0 56.57 66.57"><title>Asset 7</title><g id="Layer_2" data-name="Layer 2"><g id="Layer_1-2" data-name="Layer 1"><path d="M43.26,54.15s9.14-3.23,10.84-7.54S55,35.72,51.39,35.27,47.87,39,47.57,40.72s-4.17,6.12-8.33,2.61S33,34,35.92,30.37s7.38-3.36,9.62.36,3.84,3.64,5.41,3.41c3.89-.58,4.14-4.42,1.93-7.51s-6-8.65-13.62-8.25a11.4,11.4,0,0,0-10,7.06s-5.9-13.21-7.22-19c-1-4.31-2.77-5.64-3.77-5.2S11.76,4.85,15,13.78,22,26.66,22,26.66a25.9,25.9,0,0,1-6.88-10.49c-2.13-6.43-3.35-9-6.55-8.82S5.29,13.58,6.92,17.86s5.56,12.05,8.94,15.46A23.64,23.64,0,0,1,12,28.61C10,25.38,6.8,17.24,4,18.28S.25,25.23,2.11,29s2.17,2.65,11.1,14.29c0,0,3.36,10.29,11.43,15.13,0,0,.35,7.3,6.19,7,8.71-.5,12.72-3.27,12.72-3.27Z" transform="translate(-0.06)" fill="#fff"/><path d="M43,54c.37.81.77,1.5,1.16,2.2a5.14,5.14,0,0,1,.75,2.88c0,.66-.12,1.34-.14,2v1.06a1.1,1.1,0,0,1-.54.94,14.07,14.07,0,0,1-1.69.85c-.56.25-1.11.46-1.67.66-1.11.4-2.24.73-3.37,1-.47.11-.92.29-1.39.41a7.43,7.43,0,0,1-1.6.37c-1.12.07-2.23.11-3.34.14a7.27,7.27,0,0,1-3.78-.8A6.75,6.75,0,0,1,24.77,63a10.91,10.91,0,0,1-1.1-3.43c-.06-.36-.1-.68-.13-1.09l.54.89a24.84,24.84,0,0,1-6.49-5.71c-1-1.31-1.7-2.85-2.57-4.21a28.24,28.24,0,0,1-2.85-5.81l.17.32c-2.37-3.07-4.68-6.17-7.2-9.1-.58-.69-1.18-1.36-1.77-2.09a13.83,13.83,0,0,1-1.62-2.4A12.87,12.87,0,0,1,.64,27.75,20.35,20.35,0,0,1,.1,25,8.88,8.88,0,0,1,1,20.33a6,6,0,0,1,1.65-2.22,2.73,2.73,0,0,1,.63-.41,2.39,2.39,0,0,1,2.47,0,7.14,7.14,0,0,1,2,1.82c.52.66,1,1.33,1.44,2a61.58,61.58,0,0,1,3.52,6.55,21.74,21.74,0,0,0,1.82,2.46A18.32,18.32,0,0,0,16.4,32.7l-1.12,1.2a42.69,42.69,0,0,1-3.76-5,70.13,70.13,0,0,1-5.09-9.52,17.89,17.89,0,0,1-1.29-3.69,17.21,17.21,0,0,1-.44-4A10.9,10.9,0,0,1,5,9.22,4.58,4.58,0,0,1,6.65,6.64a3.64,3.64,0,0,1,.8-.44A5.25,5.25,0,0,1,8.32,6,5.71,5.71,0,0,1,9.81,6a4.92,4.92,0,0,1,2.76,1.38,9,9,0,0,1,2,3.26c.59,1.52,1.07,3,1.69,4.41.33.8.54,1.48.83,2.23A18.07,18.07,0,0,0,18,19.47c.11.22.14.51.3.68a29.46,29.46,0,0,1,2.15,2.91,17.16,17.16,0,0,0,2.2,2.82l-1.41,1.47L21,27c-1.2-1.53-1.95-3.26-3-4.76a31.17,31.17,0,0,1-2.13-3.93,11.64,11.64,0,0,1-1-3.06,14.69,14.69,0,0,0-1-3.11,9.84,9.84,0,0,1-.65-3.31,10.24,10.24,0,0,1,.34-3.71A6.33,6.33,0,0,1,14,3.86a9,9,0,0,1,2-2.49A8.39,8.39,0,0,1,17.25.43a3.55,3.55,0,0,1,.39-.2l.11-.05.18-.07A1.89,1.89,0,0,1,18.31,0a2.55,2.55,0,0,1,1.33.2,4.25,4.25,0,0,1,1.51,1.23A7.44,7.44,0,0,1,22,2.83a15,15,0,0,1,1.06,2.83c.2.76.38,1.3.62,2a19.66,19.66,0,0,1,.62,1.93,27.5,27.5,0,0,0,1.08,3.71c.3.77.58,1.54.93,2.28A29.35,29.35,0,0,1,28.67,22a11.24,11.24,0,0,0,.45,1.11l.71,2.06-1.25,0a9.57,9.57,0,0,1,.75-1.31c.22-.35.48-.7.67-1.06a8.34,8.34,0,0,1,3.84-3.44,15.71,15.71,0,0,1,6.42-1.59,12.64,12.64,0,0,1,4.26.54,13.2,13.2,0,0,1,3.85,2,18.12,18.12,0,0,1,3.07,3c.45.55.88,1.11,1.28,1.68s.78,1.1,1.19,1.76A7.91,7.91,0,0,1,55,30.18,5.64,5.64,0,0,1,54.74,32a4.25,4.25,0,0,1-1.07,1.64,6.05,6.05,0,0,1-3.34,1.42,3.79,3.79,0,0,1-2.58-.65,7.49,7.49,0,0,1-1.67-1.77A18.69,18.69,0,0,1,45,31a5.75,5.75,0,0,0-1.12-1.38,4.09,4.09,0,0,0-3.2-1.08,5.63,5.63,0,0,0-3.33,1.67,5.48,5.48,0,0,0-1.75,3.28,8.41,8.41,0,0,0,1.47,5.89,16.13,16.13,0,0,0,2,2.31,7.55,7.55,0,0,0,2.24,1.66,3.24,3.24,0,0,0,2.43,0,4.85,4.85,0,0,0,2.13-1.62,4.07,4.07,0,0,0,.54-.89,1.88,1.88,0,0,0,.12-.36l.07-.6a13.37,13.37,0,0,1,.51-2.82,5,5,0,0,1,.75-1.51,3.75,3.75,0,0,1,1.48-1.2,4.18,4.18,0,0,1,1.8-.31l.43,0,.45.09.45.11.43.18a5.85,5.85,0,0,1,2.49,2.43,9.84,9.84,0,0,1,1.1,2.94A7.14,7.14,0,0,1,56.61,41a16.9,16.9,0,0,1-.83,6.79,9.08,9.08,0,0,1-2.54,3.34,19.08,19.08,0,0,1-3.07,2.14,8.35,8.35,0,0,1-3.88,1.1l-1.49,0-.73,0h-.36c-.12,0-.28.06-.24-.1a.44.44,0,0,1-.25-.53.89.89,0,0,1,.06-.39c.11-.2.38-.34.88-.62,1.88-1.07,3.8-2,5.55-3.15a10.49,10.49,0,0,0,2.8-2.6,1.84,1.84,0,0,0,.28-.45,3.54,3.54,0,0,0,.23-.48,9.1,9.1,0,0,0,.34-1.16,10.41,10.41,0,0,0,.27-2.43,9.14,9.14,0,0,0-1-4.48.5.5,0,0,0-.08-.12,2.18,2.18,0,0,0-.89-.86,2.14,2.14,0,0,0-.22-.1.93.93,0,0,1-.24,0,2,2,0,0,0-.57,0,.81.81,0,0,0-.57.42,4,4,0,0,0-.42,1.34c-.1.61-.12,1.25-.21,2.09a3.06,3.06,0,0,1-.05.36,4.77,4.77,0,0,1-.13.51,5.89,5.89,0,0,1-.32.79,8,8,0,0,1-.8,1.24,7.6,7.6,0,0,1-2.89,2.22,7.37,7.37,0,0,1-4.08.34,6.36,6.36,0,0,1-2.76-1.17,12.18,12.18,0,0,1-1.93-1.76A17.35,17.35,0,0,1,33.72,39a11.79,11.79,0,0,1-1-2.95,6.33,6.33,0,0,1,.19-3.25,6.85,6.85,0,0,1,1.35-3.46A8.84,8.84,0,0,1,37,26.91a7.78,7.78,0,0,1,3.67-1,7.69,7.69,0,0,1,3.76.94,8,8,0,0,1,2.55,2.23l.45.65.31.47c.21.3.43.59.64.85a3.26,3.26,0,0,0,1.13,1,1.07,1.07,0,0,0,.45.1,3,3,0,0,0,.39,0,2.76,2.76,0,0,0,.47-.07,2.36,2.36,0,0,0,.93-.3,1.2,1.2,0,0,0,.51-.51,3.12,3.12,0,0,0-.1-2.35,7,7,0,0,0-.63-1.21l-1-1.4a19,19,0,0,0-2.11-2.48,11.24,11.24,0,0,0-2.27-1.67,13.23,13.23,0,0,0-2.47-1,12.77,12.77,0,0,0-5-.48,9.6,9.6,0,0,0-2.41.54,9.35,9.35,0,0,0-2.14,1.19A9.76,9.76,0,0,0,32.31,24a10.17,10.17,0,0,0-.72,1,6.9,6.9,0,0,0-.54,1l-.08.18a1.93,1.93,0,0,1-2.54,1,2,2,0,0,1-1-1l-1.24-3A146.91,146.91,0,0,1,21,8.69c-.14-.48-.26-1-.37-1.5s-.18-.92-.3-1.37a6.26,6.26,0,0,0-1-2.27,2.7,2.7,0,0,0-.81-.75s.07-.14.07-.24a.61.61,0,0,0,0-.26.27.27,0,0,0,0-.13v0h0c.12.27-.26-.62.27.61h0l0,0a4.86,4.86,0,0,0-.63.37,4.31,4.31,0,0,0-1.76,2.57,3.75,3.75,0,0,1-.16.43,8.56,8.56,0,0,0-.12,4.62,18.27,18.27,0,0,0,.72,2.45c.33.86.66,1.71,1,2.56a45.09,45.09,0,0,0,5.26,9.43l.16.19.14.17a1.82,1.82,0,0,1-2.67,2.47A24.81,24.81,0,0,1,17,23.43a30.47,30.47,0,0,1-2.71-5.23c-.23-.54-.41-1.12-.6-1.66L13.16,15A26.49,26.49,0,0,0,12,12c-.61-1.32-1.44-2.56-2.2-2.81a2,2,0,0,0-.62-.12,2.16,2.16,0,0,0-.36,0l-.2,0-.07,0c-.15.07-.22.13-.41.55-.05.08-.08.21-.14.33a7.52,7.52,0,0,0-.26,3.81,15.68,15.68,0,0,0,.43,2.06c.19.68.4,1.29.68,2,.69,1.82,1.84,3.47,2.44,5.38.95,1.54,1.9,3.06,2.85,4.59a28.77,28.77,0,0,0,3,4.18l.09.1a1.84,1.84,0,0,1-.1,2.61,1.86,1.86,0,0,1-2.52,0,18.81,18.81,0,0,1-1.54-1.62c-.46-.54-.9-1.08-1.33-1.64a16.93,16.93,0,0,1-1.92-2.56c-.9-1.78-1.93-3.32-2.61-5a12.49,12.49,0,0,0-1.66-2.9,4.25,4.25,0,0,0-.92-.93c-.06-.06-.11-.07-.15-.11s-.07,0,0-.05c.1-.37,0-.47.08-.27h0a2.46,2.46,0,1,1,.1.27h0l0,0L4.5,20a1.27,1.27,0,0,1-.19.13,2.72,2.72,0,0,0-.41.46,4.93,4.93,0,0,0-.68,1.44,8.91,8.91,0,0,0,0,5.3,6.06,6.06,0,0,0,.32.78c.12.26.3.59.45.85a10.34,10.34,0,0,0,1,1.53c.4.49.88,1,1.35,1.52A118.36,118.36,0,0,1,14.7,42.12a2.17,2.17,0,0,1,.3.56,32.67,32.67,0,0,0,2.78,6,26.16,26.16,0,0,0,4,5.23c.36.34.75.64,1.12,1s.8.57,1.17.88.93.82,1.43,1.19l.1.07a1.77,1.77,0,0,1,.73,1.32v.06c.19,1.82.87,3.77,2,4.66a3.09,3.09,0,0,0,2.08.65h.31l.39,0,.79-.07c.53-.05,1-.14,1.58-.22a44.38,44.38,0,0,0,4.76-1.08c.77-.22,1.54-.47,2.28-.74l1.08-.44c.33-.14.74-.34.93-.44l-.74,1.48c0-1.1.06-2.21.14-3.28a24.64,24.64,0,0,0,0-2.57C41.88,54.68,42.08,54.26,43,54Z" transform="translate(-0.06)" fill="#010202"/></g></g></svg>