<svg xmlns="http://www.w3.org/2000/svg" viewBox="0 0 14.7 10.48"><title>Asset 6</title><g id="Layer_2" data-name="Layer 2"><g id="Layer_1-2" data-name="Layer 1"><path d="M.32,4A7.5,7.5,0,0,1,1.65,2a4.7,4.7,0,0,1,1.09-.63C3.17,1.17,3.55.91,4,.73A7.09,7.09,0,0,1,5.29.35,12,12,0,0,1,6.59.21,4.24,4.24,0,0,0,7.37.08,4.23,4.23,0,0,1,8.16,0,7.26,7.26,0,0,1,9.55.35L10.9.79A5.49,5.49,0,0,1,12,1.34a2.93,2.93,0,0,1,.79.93c.22.5.66.84.89,1.31A7.83,7.83,0,0,1,14.51,6a10.8,10.8,0,0,1,.19,2.17c0,.07-.06.13-.07.2a3.82,3.82,0,0,0-.08.75c0,.32-.08.64-.68.83a.13.13,0,0,0-.1.11c0,.3-1,.32-1.67.38a4.85,4.85,0,0,1-.65-.11c-.06,0-.16-.1-.17-.14a1.52,1.52,0,0,1-.11-.53c0-.22.14-.41.13-.63,0-.58.39-1.15,0-1.72-.2-.32-.08-.64-.1-1a2.56,2.56,0,0,0-.21-1c-.16-.32-.58-.47-.78-.67s-.19-.43-.36-.58A.73.73,0,0,0,9,3.92c-.25.13-.35,0-.49-.12s-.38-.37-.62-.4-.48.29-.68.34a1.08,1.08,0,0,1-.53,0,4.53,4.53,0,0,0-1,.23A4,4,0,0,0,5,4.13a2.59,2.59,0,0,0-.73.56,3.46,3.46,0,0,0-.53.71,1,1,0,0,0-.17.47c0,.14-.27.13-1.19-.12l-.31-.08A14,14,0,0,1,.38,4.93C.09,4.76.11,4.61,0,4.46s0,0,0,0L.28,4Z" fill="#010101"/></g></g></svg>