<svg xmlns="http://www.w3.org/2000/svg" viewBox="0 0 23.38 19.26"><title>Asset 3</title><g id="Layer_2" data-name="Layer 2"><g id="Layer_1-2" data-name="Layer 1"><path d="M21.49,19.26,20,19c-.67-.14-.81-.26-.66-.39s.25-.17.31-.27a1.37,1.37,0,0,0,.11-.95c0-.05-.1-.11-.14-.16s-.18-.13-.13-.19c.45-.54.28-1.07.31-1.6a7.11,7.11,0,0,0-.2-1.12c0-.19.32-.43.21-.61-.4-.69-.23-1.44-.39-2.15,0-.22-.06-.44-.09-.66a.65.65,0,0,0-.29-.57c-.2-.12,0-.35,0-.54a1.15,1.15,0,0,0-.33-1.07.81.81,0,0,1-.25-.85c0-.16-.2-.19-.22-.31a1.4,1.4,0,0,0-.47-1c-.36-.26-.48-.67-.87-.86s-.42-.34-.66-.48a5.09,5.09,0,0,0-1-.28c-.11,0-.14-.17-.21-.27a.33.33,0,0,0-.4-.19c-.2,0-.27-.18-.4-.31s0-.15,0-.12c-.43.41-.44-.35-.72-.5s-.33-.42-.55-.29a1.24,1.24,0,0,1-.51.11c-.12,0-.23,0-.34-.28s-.26-.26-.37-.05-.23.15-.35.21a1.23,1.23,0,0,0-.33.28.53.53,0,0,1-.12.1A4.32,4.32,0,0,0,9.91,4c-.13.07-.16.34-.34.27s-.36-.15-.48-.07a.62.62,0,0,0-.2.16c-.13.27-.29.41-.82.12-.08,0-.07.05-.13.06H7.41s-.1,0-.1.1c0,.33-.23.31-.47.36a.72.72,0,0,0-.49.6,3.44,3.44,0,0,1-.94,1.75A4.15,4.15,0,0,0,5,8c0,.11,0,.3,0,.44s-.32.23-.47.35a.84.84,0,0,0-.34.9A1.94,1.94,0,0,1,4,10.83c-.06.28-.37.47-.28.79.17.62-.32,1-.34,1.57s-.14.86-.12,1.31a2.59,2.59,0,0,0,.33.73.15.15,0,0,1,0,.13c-.08.23.14.51.25.77a1,1,0,0,1,0,.8c-.05.15-.39.25-1,.31s-.86.11-1.26.17C.33,17.26.33,17.24.19,17.06a.84.84,0,0,1-.1-.91c.06-.18,0-.38.07-.57A4.41,4.41,0,0,0,.07,14.1v0c0-.39,0-.78,0-1.17,0-.21,0-.43,0-.63a.7.7,0,0,1,.16-.35c.08-.12.38-.18.3-.34-.26-.51.2-.8.22-1.23,0-.25-.16-.57.3-.66-.24-.66.45-1,.42-1.55a2.35,2.35,0,0,1,.5-1.39c.2-.3.63-.49.87-.77a2.56,2.56,0,0,0,.6-.82c.13-.28.07-.71.2-1a2.41,2.41,0,0,1,.57-.74A9.39,9.39,0,0,1,6.12,2a8.6,8.6,0,0,1,2.34-.83c.31-.07.66,0,.89-.28.34-.44.85-.12,1.2-.71,0,0,.07,0,.1,0a7.59,7.59,0,0,1,3.64.23,6.24,6.24,0,0,1,.84.47,4.81,4.81,0,0,0,.78.52,6.35,6.35,0,0,0,.91.53c.45.19,1,.29,1.49.51a.16.16,0,0,1,.07.07c.26.47.74.68,1,1.11.15.27.67.29.54.78.87.35.82,1.31,1.24,1.9.09.12.37.16.37.32s.38.45.25.79.13.7.18,1.05a6.2,6.2,0,0,0,.63,2.3c.65,1.16.31,2.47.52,3.67,0,.14.16.28.17.42s-.2.21-.19.31a8.19,8.19,0,0,0,.11,1.78A1.66,1.66,0,0,1,23,18.66c-.09.1,0,.21,0,.32S22.86,19.23,21.49,19.26Z" fill="#010101"/></g></g></svg>