<svg xmlns="http://www.w3.org/2000/svg" viewBox="0 0 26.94 53.11"><title>Asset 2</title><g id="Layer_2" data-name="Layer 2"><g id="line"><path d="M1.24,50.25c.28-.45.54-.89.81-1.29.41-.59.83-.67,1.25-.47a6.35,6.35,0,0,0,.88.41,14.7,14.7,0,0,0,3,.53,3.41,3.41,0,0,0,.55,0c.22,0,.44-.11.63,0a9.09,9.09,0,0,0,1,.33,2.82,2.82,0,0,1,.31.1l.23.07.25.07.13,0,0-.12a1.23,1.23,0,0,1,.24-.38,5.09,5.09,0,0,1,1.05-.91,16.56,16.56,0,0,1,3.53-1.84,2,2,0,0,1,.49-.11l.26,0,.35,0a2.27,2.27,0,0,1,.69,0,2,2,0,0,0,.48,0A10.48,10.48,0,0,0,20.26,46a4,4,0,0,0,1.8-2c.26-.59.51-1.21.73-1.85a5,5,0,0,0,.36-1.94,5,5,0,0,1,.45-1.6,5.1,5.1,0,0,0,.25-3.33c-.29-.79-.49-1.56-.79-2.39-.14-.36-.48-.55-.7-.85a6.27,6.27,0,0,0-2.47-2.11,19,19,0,0,0-3.67-1.51c-.46-.1-.9-.23-1.36-.34l-.67-.16c-.3-.08-.72-.16-1.08-.23s-.69-.11-1.06-.14a5.47,5.47,0,0,0-.54-1c-.08-.12-.16-.22-.23-.31a1.11,1.11,0,0,0,.1-.23,3.91,3.91,0,0,0,.08-.57c0-.49.1-.94.16-1.56l0-.09-.24-.41a.84.84,0,0,1,.07-.19,2.38,2.38,0,0,0,.11-.38,3.33,3.33,0,0,0,.06-.84A8,8,0,0,1,12,20.06c0-.09.16-.19.12-.28-.42-1,.32-2,.37-3a6.56,6.56,0,0,0,.14-2.11A10.75,10.75,0,0,1,12.31,13a2,2,0,0,1,.13-1.23,1.3,1.3,0,0,0-.14-1.22,3.84,3.84,0,0,1-.4-1.15,8.75,8.75,0,0,0-.53-1.17c-.06-.13-.13-.27-.18-.41A8.92,8.92,0,0,0,9.41,4.57c-.27-.33-.78-.41-1-.76L8,3.38a1.68,1.68,0,0,0-.42-.22c-.18,0-.36-.05-.51,0A7.08,7.08,0,0,1,5.42,4c-.14,0-.17.21-.28.3-.3.27-.66.62-.88.86a.43.43,0,0,0-.13.31c0,.12.1.23.14.34a1.19,1.19,0,0,1,.1.32,4.87,4.87,0,0,1,.1,1,6.91,6.91,0,0,0,.17,1.28,10.82,10.82,0,0,0,.3,1.25,20.59,20.59,0,0,1,.61,6.53c-.06.85-.09,1.7-.11,2.55,0,.42.13.84.17,1.27a7.26,7.26,0,0,1-.32,1.71,9.41,9.41,0,0,0-.13,3.09,15.17,15.17,0,0,1,0,3.5A10.59,10.59,0,0,1,5,29.65a1.9,1.9,0,0,1-.11.49l-.14.42a4.29,4.29,0,0,0-.14.62,7.35,7.35,0,0,1-.24,1.17c-.07.41-.17.81-.27,1.21A12.51,12.51,0,0,0,3.58,36c-.05.68-.15,1.35-.22,2s-.1,1.36-.12,2a12.68,12.68,0,0,0,.26,2.1,1.28,1.28,0,0,1,0,.39,9.22,9.22,0,0,0,.2,2.33,11.12,11.12,0,0,1,0,2.58,2.16,2.16,0,0,1-.93,1.44c-.43.34-.81.69-1.19,1C.35,49.87.35,49.84.21,49.38a6.48,6.48,0,0,1-.14-2.63c.06-.57,0-1.14.07-1.7.11-1.43,0-2.87,0-4.32v-.08c0-1.13.07-2.26.1-3.39,0-.6,0-1.2.09-1.8a6.21,6.21,0,0,1,.24-1.12c.13-.4.48-.77.44-1.18a5.1,5.1,0,0,1,.27-1.89,17.77,17.77,0,0,0,.66-1.9l0-.12,0,0s0,.06-.06,0,0,0,0,0v-.38a1.75,1.75,0,0,1,.29-1c-.29-1.51.31-3,.16-4.44a21.92,21.92,0,0,1,0-4c.08-1,.34-1.94.42-2.92a14.12,14.12,0,0,0,0-2.68c-.1-.8-.38-1.6-.54-2.37-.07-.37-.12-.74-.16-1.12S2,9.71,1.91,9.35A13.16,13.16,0,0,0,1.73,8c0-.22-.07-.45-.12-.65l-.26-1L1.17,5.7c0-.12-.06-.23-.08-.34L1.23,5a12.8,12.8,0,0,1,.63-1.29,4.82,4.82,0,0,1,.28-.48,4.56,4.56,0,0,1,.27-.39A8.32,8.32,0,0,1,3,2.1a9.6,9.6,0,0,1,.71-.72,9,9,0,0,1,.9-.65A4.82,4.82,0,0,1,7,0,5.25,5.25,0,0,1,8.21.13a10,10,0,0,1,1.08.4l.88.55c.28.2.48.42.72.62.7.66,1.18,1.56,1.79,2.2a4.94,4.94,0,0,1,1,1.62,5.67,5.67,0,0,0,.85,1.61c.06.07,0,.17.07.25a30.25,30.25,0,0,1,1,9.42c0,.78-.15,1.55-.28,2.34s-.33,1.58-.43,2.38c-.05.45-.19.92-.29,1.38l-.15.69-.09.36,0,.18v.09a1.91,1.91,0,0,0,0,.43s0,0,.13,0l.26-.06s0,0,0,0a.43.43,0,0,0,0,0,.2.2,0,0,0,.11.06s.06,0,.07,0l.39.1a11.85,11.85,0,0,1,1.73.52c.79.32,1.75.3,2.39,1,2.19.49,3.92,2.18,5.51,4,.31.36.79.65,1,1.13a6.45,6.45,0,0,1,.95,2.67,20.16,20.16,0,0,1-.07,3.58c-.54,2.32-1,4.49-1.72,7a7.58,7.58,0,0,1-1.66,3A6.16,6.16,0,0,1,20,49.49a14.52,14.52,0,0,1-3.1.11.14.14,0,0,0-.11,0l-.22.06-.29.09c-.38.13-.75.28-1.11.44s-.61.41-.92.57-.51,0-.68.17-.26.2-.4.29-.1.09-.15.13l-.08.06s0,0,0,0l0-.09v.14l0,0-.09,0-.18.1a1,1,0,0,0-.33.21c-.18.15-.41.32-.53.44l-.21.2-.34.2-.69.41L9,52.91l-.88,0a14.21,14.21,0,0,1-5.13-1,2.25,2.25,0,0,0-.9-.1C1.54,51.77,1.4,51.58,1.24,50.25Z"/></g></g></svg>