<svg xmlns="http://www.w3.org/2000/svg" viewBox="0 0 15.38 14.14"><title>Asset 1</title><g id="Layer_2" data-name="Layer 2"><g id="Layer_1-2" data-name="Layer 1"><path d="M15,10.09a5.68,5.68,0,0,1-1.32,2.23,6.25,6.25,0,0,1-2,1.39,6.77,6.77,0,0,1-2.14.36,14.81,14.81,0,0,1-2.3,0A8.18,8.18,0,0,1,3,12.48a11.58,11.58,0,0,1-1.11-.88,4.2,4.2,0,0,1-1-1.1A4.22,4.22,0,0,1,.37,9.23,6.82,6.82,0,0,1,.1,7.9,10.69,10.69,0,0,1,0,6.64L.06,5.37A5.12,5.12,0,0,1,2.22,1.7C2.65,1.48,3,1.16,3.44,1A6.26,6.26,0,0,1,4.71.38C5.09.28,5.48.17,5.87.1L7,0A8,8,0,0,1,9.45.32,8.91,8.91,0,0,1,13.1,2.48c.1.1.16.24.25.35.33.39.6.83.91,1.25a2,2,0,0,1,.33,2,.34.34,0,0,0,0,.28c.19.61-.68,1.22-1.23,1.61a2.3,2.3,0,0,1-.61.14c-.07-.07-.17-.13-.19-.19-.09-.28-.24-.54-.31-.8a4.12,4.12,0,0,0-.33-1c-.25-.42-.49-.85-.79-1.26a2.49,2.49,0,0,0-1.21-.91c-.59-.16-1-.54-1.59-.71A3.63,3.63,0,0,0,6.47,3a4.86,4.86,0,0,0-1.7.86,2.65,2.65,0,0,1-.56.35,6.4,6.4,0,0,0-.5.41,3,3,0,0,0-.39.76,3.42,3.42,0,0,0,0,.45c0,.08,0,.15,0,.22a1.86,1.86,0,0,0,.1.25c.15.36,0,.68,0,1a2.77,2.77,0,0,0,.05,1.25,2.79,2.79,0,0,0,1,.74,1.7,1.7,0,0,1,.19.19l.23.15c.15.1.25.27.43.34l.48.27.54.18a2.53,2.53,0,0,0,.56.12,3.59,3.59,0,0,0,.63.08,10.54,10.54,0,0,0,1.58.14,3.9,3.9,0,0,0,1.64-.51,2.27,2.27,0,0,0,.93-.94,1.35,1.35,0,0,0,.18-.72c0-.21.22-.37,1.13-.5a1.78,1.78,0,0,1,.3,0A8.06,8.06,0,0,1,15,8.42c.3.13.31.39.43.61a.07.07,0,0,1,0,.06,6.18,6.18,0,0,1-.31,1Z"/></g></g></svg>