<svg id="Layer_1" data-name="Layer 1" xmlns="http://www.w3.org/2000/svg" viewBox="0 0 23.35 19.2"><title>eye</title>
<path id="eyeNeutral" d="M13.81,5.72h-.08c-.14,0-.32.14-.49.15s-.19.18-.29.24c-.26.13-.53.22-.78.36a.91.91,0,0,0-.58.61c-.28,0-.27.31-.42.44s-.29.57-.57.77v0c-.09.32,0,.66-.12,1s-.23.43-.29.58a5.9,5.9,0,0,0-.48,1,5.39,5.39,0,0,0,0,2.19v0c.38.2.19.5.43.71s.14.34.18.52a5.8,5.8,0,0,0,.44,1.47,4.43,4.43,0,0,0,1,1.31,1.51,1.51,0,0,0,.6.37h.79c.25.07.52.11.78.21a2.59,2.59,0,0,0,.85.25h.06a3.2,3.2,0,0,0,.63-.07,1.57,1.57,0,0,0,.54-.33c.36-.28.87-.28,1.06-.75h.11c.22,0,.24-.23.32-.36.16-.29.57-.38.53-.79,0-.12.18-.11.26-.18a.62.62,0,0,0,.3-.16,1.09,1.09,0,0,0,0-.44c.06-.28.1-.55.15-.82a3.35,3.35,0,0,1,0-1v-.38l.41-1c-.09-.13-.08-.14,0-.21a1,1,0,0,0,.2-.65,1.2,1.2,0,0,0-.2-.61c-.2-.39-.22-.82-.41-1.22,0-.06.07-.18,0-.25a1.86,1.86,0,0,1-.21-.31,4.08,4.08,0,0,0-1.89-2.08,8.37,8.37,0,0,1-.93-.3l-1-.26-.17,0h-.4a.67.67,0,0,1-.3-.08Z" transform="translate(-2.44 -1.18)" fill="#231f20"/>
<path id="eyeSmile" d="M23.93,20.38l-1.49-.26c-.67-.14-.81-.26-.66-.39s.25-.17.31-.27a1.36,1.36,0,0,0,.11-.95c0-.05-.1-.11-.14-.16s-.18-.13-.13-.19c.45-.54.28-1.07.31-1.6a6.12,6.12,0,0,0-.2-1.12c0-.19.32-.43.21-.61-.4-.69-.23-1.44-.39-2.15a5,5,0,0,0-.09-.66.66.66,0,0,0-.29-.57c-.2-.12,0-.35,0-.54a1.13,1.13,0,0,0-.33-1.07A.82.82,0,0,1,20.9,9c0-.16-.2-.19-.22-.31a1.39,1.39,0,0,0-.47-1c-.36-.26-.48-.67-.87-.86s-.42-.34-.66-.48a5.7,5.7,0,0,0-1-.28c-.11,0-.14-.17-.21-.27a.33.33,0,0,0-.4-.19c-.2,0-.27-.18-.4-.31s0-.15,0-.12c-.43.41-.44-.35-.72-.5s-.33-.42-.55-.29a1.12,1.12,0,0,1-.51.11c-.12,0-.23,0-.34-.28s-.26-.26-.37,0-.23.15-.35.21a1.75,1.75,0,0,0-.33.28.29.29,0,0,1-.12.1,4.88,4.88,0,0,0-1,.37c-.13.07-.16.34-.34.27s-.36-.15-.48-.07a1,1,0,0,0-.2.16c-.13.27-.29.41-.82.12-.08,0-.07.05-.13.06H9.85a.1.1,0,0,0-.1.1c0,.33-.23.31-.47.36a.74.74,0,0,0-.49.6,3.38,3.38,0,0,1-.94,1.75,5.47,5.47,0,0,0-.41.65v.44c0,.14-.32.23-.47.35a.85.85,0,0,0-.34.9A1.88,1.88,0,0,1,6.44,12c-.06.28-.37.47-.28.79.17.62-.32,1-.34,1.57s-.14.86-.12,1.31a2.68,2.68,0,0,0,.33.73.15.15,0,0,1,0,.13c-.08.23.14.51.25.77a1,1,0,0,1,0,.8c0,.15-.39.25-1,.31s-.86.11-1.26.17c-1.25-.15-1.25-.17-1.39-.35a.84.84,0,0,1-.1-.91c.06-.18,0-.38.07-.57a4.11,4.11,0,0,0-.09-1.48h0v-1.8a.75.75,0,0,1,.16-.35c.08-.12.38-.18.3-.34-.26-.51.2-.8.22-1.23,0-.25-.16-.57.3-.66-.24-.66.45-1,.42-1.55a2.43,2.43,0,0,1,.5-1.39c.2-.3.63-.49.87-.77a2.42,2.42,0,0,0,.6-.82c.13-.28.07-.71.2-1a2.57,2.57,0,0,1,.57-.74A9.62,9.62,0,0,1,8.56,3.12a9,9,0,0,1,2.34-.83c.31-.07.66,0,.89-.28.34-.44.85-.12,1.2-.71h.1a7.6,7.6,0,0,1,3.64.23,6.24,6.24,0,0,1,.84.47,4.81,4.81,0,0,0,.78.52,7,7,0,0,0,.91.53c.45.19,1,.29,1.49.51a.16.16,0,0,1,.07.07c.26.47.74.68,1,1.11.15.27.67.29.54.78.87.35.82,1.31,1.24,1.9.09.12.37.16.37.32s.38.45.25.79.13.7.18,1.05a6.36,6.36,0,0,0,.63,2.3c.65,1.16.31,2.47.52,3.67,0,.14.16.28.17.42s-.2.21-.19.31a8.12,8.12,0,0,0,.11,1.78,1.65,1.65,0,0,1-.2,1.72c-.09.1,0,.21,0,.32S25.3,20.35,23.93,20.38Z" transform="translate(-2.44 -1.18)" fill="#010101"/></svg>