<svg xmlns="http://www.w3.org/2000/svg" viewBox="0 0 9.73 12.29"><title>Asset 1</title>
<path id="normalOuterEye" d="M5,1.4C3,1.4,1.44,3.46,1.4,6s1.48,4.72,3.42,4.76h.06c1.92,0,3.51-2.06,3.56-4.63S7,1.44,5,1.4Z" fill="#231f20"/>
<path id="normalInnerEye" d="M4.14,0C4,0,3.82.14,3.65.15s-.19.18-.29.24c-.26.13-.53.22-.78.36A.9.9,0,0,0,2,1.36H2c-.28,0-.27.31-.42.44s-.29.57-.57.77a.1.1,0,0,0,0,.05c-.09.32,0,.66-.12.95S.66,4,.6,4.15s-.4.65-.48,1a5.22,5.22,0,0,0,0,2.19s0,0,0,.05c.38.2.19.5.43.71s.14.34.18.52a5.49,5.49,0,0,0,.44,1.47,4.42,4.42,0,0,0,1,1.31,1.38,1.38,0,0,0,.6.37,1.09,1.09,0,0,0,.31,0h.21l.27,0c.25.07.52.11.78.21a2.53,2.53,0,0,0,.85.25h.06a3.29,3.29,0,0,0,.63-.07,1.67,1.67,0,0,0,.54-.33c.36-.28.87-.28,1.06-.75h.11c.22,0,.24-.23.32-.36.16-.29.57-.38.53-.79,0-.12.18-.11.26-.18A.69.69,0,0,0,9,9.59,1.33,1.33,0,0,0,9,9.15c.06-.28.1-.55.15-.82v0a3.22,3.22,0,0,1,0-1c0-.13,0-.26,0-.38a.58.58,0,0,0-.09-.6c-.09-.11-.09-.11-.9-.14a7.86,7.86,0,0,1-.79.16c-.38.06-.58.12-.61.19a.46.46,0,0,0,0,.41c.06.13.2.29.14.41a.07.07,0,0,0,0,.06c.07.14.2.31.18.42A3.87,3.87,0,0,1,7,8.5c-.1.29-.4.41-.45.74,0,.18-.21.22-.32.3A1.07,1.07,0,0,0,5.9,10a.38.38,0,0,1-.38.22H5.44c-.09,0-.19-.14-.26-.14h0c-.06,0-.12.14-.18.16H4.88a1.19,1.19,0,0,1-.32-.1A3.86,3.86,0,0,1,4.08,10a4.27,4.27,0,0,0-.57-.09.37.37,0,0,1-.37-.25c0-.14,0-.29-.17-.29h0s-.05,0-.05-.06,0-.21,0-.31-.06,0,0-.08c.21-.33.12-.42,0-.51A.41.41,0,0,1,2.7,8.3c0-.08,0-.21.07-.31s-.12-.14-.17-.23a3.15,3.15,0,0,1-.25-.69L2.29,7a1,1,0,0,1-.2-.21c0-.07,0-.15-.13-.22s-.13-.15,0-.23.18-.15.16-.22,0-.21-.09-.31.12-.25.16-.37.56-.26.26-.5c0,0,.06,0,.07,0s.22-.16.15-.29,0-.21.1-.28.13-.09.14-.17A2.07,2.07,0,0,1,3,3.55a4.43,4.43,0,0,1,.2-.45,2.78,2.78,0,0,1,.41-.56.53.53,0,0,1,.46-.27h0c.06,0,.08-.11.15-.11h0l.24,0a.33.33,0,0,0,.21-.07A.44.44,0,0,1,5,2a.7.7,0,0,1,.27.14c.07,0,.11.14.17.14a.07.07,0,0,0,.06,0,.21.21,0,0,1,.12,0,.37.37,0,0,1,.19.09,1.53,1.53,0,0,1,.27.17,2.46,2.46,0,0,1,.4.39.86.86,0,0,0,.44.37c.1.07,0,.28,0,.37s.3.29.33.51.26.53,0,.88c0,0,.06.06.1.08s.1,0,.11.08a.56.56,0,0,1,0,.52c0,.06-.13.12-.18.17s0,.13.44.19l.93.13c.85-.06,1-.11.91-.24s-.08-.14,0-.21a1.15,1.15,0,0,0,.2-.65,1.38,1.38,0,0,0-.2-.61c-.2-.39-.22-.82-.41-1.22,0-.06.07-.18,0-.25S9,2.84,8.94,2.74A4.09,4.09,0,0,0,7.05.66a6.74,6.74,0,0,1-.93-.3L5.17.1,5,.08c-.13,0-.26,0-.4,0A.62.62,0,0,1,4.3,0a.32.32,0,0,0-.16,0Z" fill="#231f20"/>
</svg>