<svg xmlns="http://www.w3.org/2000/svg" viewBox="0 0 153.62 192.48"><title>Asset 1</title><g id="Layer_2" data-name="Layer 2"><g id="Layer_1-2" data-name="Layer 1"><path d="M146.37,135.6l.74-.68C164,83.75,124.48,59.53,124.48,59.53l-1.8-.74s-5.29-6.08-20.86-9.81c2.83-2.26,8.94-8.54,8.66-20.65C110.15,14.35,98.21,2,77.23,2.2S39.74,13,40.12,29.43C40.45,44,49.6,49.22,51.68,50.24,20.64,61.6-6.25,95.4,6.25,135.93l.13.58C.6,138.43.92,145.75,2.89,149.59c2.11,4.11,9,5,11.41,3.06l.78,3c2.07,26.82,35.81,35.36,61.06,35.12h.45c25.24-.23,58.82-9.41,60.38-36.26l.77-3c2.5,1.91,9.32.88,11.35-3.27C150.86,144.58,151.13,137.91,146.37,135.6Z" fill="#fff"/><path d="M124,70.13a6.47,6.47,0,0,0-1.18-.8C84.4,39.68,25.38,54.62,12.37,103.27c-1.52,1.35-3.41,8.58-3,10.61C7.61,120.9,8,123.47,7,131.67a3.51,3.51,0,0,0,2,3.65c1.68,2,5.58,2,6-1.29,1-7,3.84-13.23,5.89-19.91,32.64-1,65.23-10.88,92.3-29.27,0,1.35,4.86,8.75,6,10.21,7.12,9.21,12.67,14.78,15.59,28.64.29,1.38.57,5.13,1.39,5.77-.13,1.21.21,6,.25,7.23.13,4.24,3.75-3.16,6.76-2.61,2.07.38,3.35,3.89,3.84.9C151.08,109.91,143,86.63,124,70.13Z" fill="#231f20"/><path d="M89.1,9.48C82,7.54,74.5,6.93,67.53,9c-5,.72-9.82,3.37-14.17,6.08-9.62,6-9.81,17.27-8.15,27.27a3.6,3.6,0,0,0,2,2.68c.88,3.13,4.78,2.58,6.15.26a3.49,3.49,0,0,0,1.57-.6c13.08-9,26.16-8.92,40.38-3.11,0,.15,2,2.9,1.93,3-.37,2.25,1.51,1.42,3.24,1.75,1.46,2.17,3.33,1.93,4.09-1.42C107.8,30.71,105.49,13.94,89.1,9.48Z" fill="#231f20"/><path d="M99.15,45.84A30.36,30.36,0,0,1,96,43.79a2.78,2.78,0,0,0-1.87-2.93c-12.35-5-27.89-5.07-39.26,2.51-3.64,2.42.13,8.06,3.78,5.63a27.39,27.39,0,0,1,2.84-1.62c10.92-1.07,22.79-2.49,33.12,1.7a2.25,2.25,0,0,0,1.37.09c.39.24.78.49,1.19.72C99.67,51.34,101.67,47.28,99.15,45.84Z" fill="#ffe500"/><path d="M136.39,138.12a7.67,7.67,0,0,1,2.81-3.86,5.72,5.72,0,0,1,2.4-.73,9.16,9.16,0,0,1,2.63.09,10.45,10.45,0,0,1,6.28,4.23,9.82,9.82,0,0,1,.87,2.58,18.62,18.62,0,0,1,.35,2.44,8.1,8.1,0,0,1-.45,3.84,26.31,26.31,0,0,1-.91,2.5,8.71,8.71,0,0,1-3.49,3.5,12,12,0,0,1-4,1.39c-.14,0-.29,0-.42,0-.51.05-1,0-1.53.05a2.23,2.23,0,0,1-1.89-.68.59.59,0,0,0-.27-.14c-.64-.15-.83-1.13-.91-1.78a1.93,1.93,0,0,1,.19-.51,1.51,1.51,0,0,1,.26,0c.28.11.6.13.89.22a6.37,6.37,0,0,0,1.2.26,6.67,6.67,0,0,0,3.47-.44c.61-.34,1.29-.48,1.89-.82a5.23,5.23,0,0,0,1.71-1.33,6,6,0,0,0,.78-2.08c.16-.59.44-1.17.56-1.79a4.35,4.35,0,0,0-.1-2.45,4.52,4.52,0,0,1-.21-1.35c0-.27,0-.55-.07-.82a2,2,0,0,0-.2-.78c-.21-.47-.7-.76-1-1.08-.19-.14-.32-.33-.49-.48s-.34-.29-.51-.44a6.87,6.87,0,0,0-2.67-1,5.3,5.3,0,0,0-1.55-.19,2.89,2.89,0,0,0-1.58.76,4.67,4.67,0,0,0-1,1.49,4.37,4.37,0,0,0-.34,1.06c-.06.31-.31.5-1.11.51a1.2,1.2,0,0,1-.27,0,8.18,8.18,0,0,1-1.39-.6c-.24-.15-.21-.39-.28-.59a.07.07,0,0,1,0-.06c.1-.28.21-.57.34-.85Z" fill="#010101"/><path d="M12.18,140.52a5,5,0,0,0-1.58-2.21,3.76,3.76,0,0,0-1-.71,4.35,4.35,0,0,0-1.67-.12,5.69,5.69,0,0,0-3.15,1.25,4.71,4.71,0,0,0-1,1.73,9,9,0,0,0-.6,1.88,6.37,6.37,0,0,0,0,1.9c.13,1,.39,2,.54,3A4.7,4.7,0,0,0,4.42,149,5.6,5.6,0,0,0,6.76,151a8.53,8.53,0,0,0,2.88.77c.1,0,.19.06.29.08a4.29,4.29,0,0,0,1.07.05,1.71,1.71,0,0,1,1.35.25.19.19,0,0,0,.19,0c.38-.13,1,.49,1.64.62a2.76,2.76,0,0,1,.46.33.7.7,0,0,1-.13.29,3.37,3.37,0,0,1-1.1.75,10.15,10.15,0,0,1-1.58.34c-1.45.24-2.79-.21-4.2-.3a5.71,5.71,0,0,1-2.33-.91,10.68,10.68,0,0,1-2.2-1.73,8.64,8.64,0,0,1-1.84-2.4,10.17,10.17,0,0,1-.58-2.23c-.21-1-.29-1.95-.6-3a3.75,3.75,0,0,1,.08-1.82A4.67,4.67,0,0,1,.5,141c.14-.37.28-.72.42-1.07a10,10,0,0,1,.79-2.17,6.35,6.35,0,0,1,.75-1c.31-.27.62-.54.94-.79a9.09,9.09,0,0,1,4.35-1.57,6.78,6.78,0,0,1,2.65.37,6.4,6.4,0,0,1,2.76,1.67,8.21,8.21,0,0,1,1.52,2.27l.57,1.33c.16.36,0,.73-.66,1.11a.86.86,0,0,1-.24.11c-.52.05-1.09.15-1.51.15s-.35-.18-.52-.26a.06.06,0,0,1,0,0c-.05-.22-.11-.43-.17-.64Z" fill="#010101"/><path d="M132.27,69.67c.18.52.37,1,.51,1.49.2.71,0,1.09-.46,1.27a7.69,7.69,0,0,0-.92.38A14.71,14.71,0,0,0,129,74.73a3.17,3.17,0,0,0-.33.46c-.13.18-.21.41-.4.5A11.62,11.62,0,0,0,126,77.1c-.69.5-1.37,1-2.07,1.54-1,.7-1.86,1.58-2.83,2.32-.51.38-1.23.48-1.67.93-1.68,1.71-3.78,2.85-5.67,4.26-.58.43-1.18.83-1.77,1.24a6.52,6.52,0,0,0-1.6,1.33,4.34,4.34,0,0,1-1.48.89,15.75,15.75,0,0,0-3.22,1.94,8.17,8.17,0,0,1-2.6,1.44c-.42.14-.67.51-1,.7-.54.27-1.09.54-1.62.83a16.13,16.13,0,0,0-1.57.88c-1.17.8-2.5,1.32-3.68,2.11-.83.55-1.72,1-2.57,1.49-1,.61-2.07,1.22-3.12,1.79a6.16,6.16,0,0,1-1.25.43,4.93,4.93,0,0,0-1.67.75,6.4,6.4,0,0,1-1.88.68c-.1,0-.25-.05-.32,0-.78.95-2.06.55-3.06.87a7.42,7.42,0,0,0-2.1.57,9.9,9.9,0,0,1-1.58.75,2,2,0,0,1-1.27.18,1.41,1.41,0,0,0-1.21.38A3.71,3.71,0,0,1,74,106c-.41.18-.8.42-1.21.63a2.44,2.44,0,0,1-.43.21l-4.18,1.41a4.8,4.8,0,0,1-1.56.56,6.45,6.45,0,0,0-1.59.12,8.52,8.52,0,0,0-.94.3,3.74,3.74,0,0,1-2.74.33c-.16,0-.31.08-.47.09l-1.45,0a.92.92,0,0,0-.46.11,3.48,3.48,0,0,1-1.94.35,6.83,6.83,0,0,0-2.47.56,23.29,23.29,0,0,1-6.36,1.44c-.85.1-1.7.2-2.54.35-.41.09-.8.3-1.21.4a6.84,6.84,0,0,1-1.75,0,8.5,8.5,0,0,0-3.07.47,14.55,14.55,0,0,1-3.45.68,16.37,16.37,0,0,0-2.71.26c-1.69.54-3.45.27-5.17.52-1.39.22-2.79.23-4.18.42a20.73,20.73,0,0,0-2.12.56,1.33,1.33,0,0,1-.4,0,10.93,10.93,0,0,0-2.38.43,10.27,10.27,0,0,1-2.71.11,2.08,2.08,0,0,1-1.5-1c-.34-.46-.71-.86-1-1.27.12-1.28.14-1.27.6-1.41a6.63,6.63,0,0,1,2.58-.19c.55,0,1.11,0,1.67,0a29.94,29.94,0,0,0,4.21-.46h.08l3.27-.44c.57-.07,1.14-.21,1.71-.29a5.76,5.76,0,0,1,1.1,0c.39,0,.81.26,1.17.11,1.15-.46,2.35-.21,3.51-.46.67-.14,1.33-.48,2-.15a6.23,6.23,0,0,1,2.21-.38,10.34,10.34,0,0,0,2.21-.32,17.68,17.68,0,0,1,3.94-.68c1-.11,2,0,3-.11a16.28,16.28,0,0,0,2.7-.4c.81-.2,1.57-.6,2.36-.88a18.2,18.2,0,0,1,2.3-.52c2-.36,3.94-.62,5.89-1l5.88-1.06a5.71,5.71,0,0,0,2.19-.63c.93-.61,2.08-.55,2.93-1.36.06-.06.14,0,.22-.08,2.85-.81,5.55-2,8.39-2.86.71-.22,1.45-.38,2.18-.55a14.74,14.74,0,0,0,2.13-.7c.8-.32,1.63-.59,2.4-1C88,97.63,89,97,90,96.32a.85.85,0,0,1,.22-.09,25.54,25.54,0,0,0,3.29-1.59c.72-.31,1.25-1,2.13-1a9.38,9.38,0,0,1,2.52-1.51,15.1,15.1,0,0,0,2.57-1.38c.32-.22.53-.63.89-.76.68-.27,1.15-.89,1.88-1A10.6,10.6,0,0,0,106,87.65a26.94,26.94,0,0,0,5.4-3.84,36.48,36.48,0,0,1,4.23-3.21c1.44-1,2.9-2,4.27-3.13.33-.27.58-.62.92-.87s.58-.18.8-.36c.67-.54,1.38-1,2.08-1.54A15.72,15.72,0,0,0,125.68,73a12.89,12.89,0,0,1,4.13-3.12,2.23,2.23,0,0,0,.66-.6C130.85,68.85,131.09,68.89,132.27,69.67Z" fill="#010101"/><path d="M19,118.77c.35.58.7,1.1,1,1.66a2.55,2.55,0,0,1,0,2.44,17.68,17.68,0,0,0-.77,1.72,34.16,34.16,0,0,0-1.44,6c-.06.36,0,.74-.06,1.1a5.82,5.82,0,0,1-.07,1.26,46.54,46.54,0,0,0-1.44,10.18c-.17,2.44,0,4.89,0,7.33a34.8,34.8,0,0,0-.12,3.81,50.61,50.61,0,0,0,1.19,6.84,26.16,26.16,0,0,0,2.57,6.38A31.49,31.49,0,0,0,22.21,171a13.32,13.32,0,0,0,2.81,2.9,33,33,0,0,1,2.42,2.33,23.25,23.25,0,0,0,6.12,4.14c1.78.8,3.51,1.74,5.24,2.69a22.84,22.84,0,0,0,2.34.88,36.49,36.49,0,0,0,6.82,2.3c2.77.58,5.5,1.34,8.3,1.66,2,.23,3.9.55,5.86.71,2.38.2,4.77.22,7.15.25.86,0,1.74.13,2.6.22a16.32,16.32,0,0,0,3.63,0,31,31,0,0,1,4,0c.2,0,.43.13.62.07,2.09-.66,4.2,0,6.31-.19a24,24,0,0,0,4.34-.33c1.14-.31,2.28-.48,3.43-.71a8.5,8.5,0,0,1,2.53-.21,4.78,4.78,0,0,0,2.49-.49,16.25,16.25,0,0,1,2.42-.79c.86-.27,1.68-.62,2.52-1,.29-.12.59-.24.89-.34a67.57,67.57,0,0,0,8.13-3.13c1-.46,1.89-1.15,2.9-1.51a15.21,15.21,0,0,0,4.45-2.29,21.13,21.13,0,0,1,4.55-2.89,5,5,0,0,0,.74-.58c.76-.55,1.53-1.1,2.25-1.71a2.8,2.8,0,0,0,.64-.69,23.2,23.2,0,0,1,2.51-3,14.39,14.39,0,0,0,2.5-4.37,40.4,40.4,0,0,0,2.47-12.58c.11-1.71.18-3.43.15-5.15,0-.84-.19-1.68-.28-2.52-.11-1.16.07-2.32.07-3.48a24.62,24.62,0,0,0-.73-6.2c-.6-2.26-1-4.58-1.53-6.86a36.37,36.37,0,0,0-1.31-5.28c-1.29-3.22-2.09-6.6-3.6-9.7-.4-.81-.81-1.63-1.23-2.39l0-.06,0-.06a47.14,47.14,0,0,0-2.75-4.77,40.29,40.29,0,0,0-2.65-3.33,6,6,0,0,1-.47-.65,32.13,32.13,0,0,0-3-3.7c-1.16-1.35-2.21-2.8-3.23-4.26a6.07,6.07,0,0,1-1.05-3c-.08-.83-.23-1.66-.35-2.45,1.07-.71,1.1-.67,1.81,0a23.7,23.7,0,0,1,3.41,4.14c.66,1,1.4,1.84,2,2.8,1.65,2.4,3.51,4.66,5.2,7.08l.09.14c1.3,1.9,2.54,3.85,3.69,5.92l.31.57h0c.53.88,1,1.73,1.43,2.61a19.49,19.49,0,0,1,.86,2.19,14.21,14.21,0,0,0,.69,2.37c1.22,2.22,1.64,4.71,2.39,7.07a11.69,11.69,0,0,1,1,4.23c1.11,3,1.11,6.21,1.73,9.27a44.09,44.09,0,0,1,.77,8.41c0,2.1-.23,4.18-.38,6.26l-.21,2.86c-.06,1-.16,2-.27,3a34.24,34.24,0,0,1-.84,5.45,22.86,22.86,0,0,1-2.05,4.87,33.62,33.62,0,0,1-8.57,10,49.37,49.37,0,0,1-11,6.46,47.59,47.59,0,0,0-4.43,1.9c-2,1.12-4.28,1.47-6.24,2.61a2.67,2.67,0,0,1-.48.15,88.84,88.84,0,0,1-18.36,3.44c-3.12.22-6.25.12-9.38.14-1.81,0-3.62-.09-5.43-.07-2.56,0-5.13.06-7.7,0a4.07,4.07,0,0,1-.49-.05c-2.53-.46-5.11-.58-7.63-1.1-1.63-.34-3.35-.28-4.89-1-4.16-.41-8-2.12-11.93-3.53a16.86,16.86,0,0,1-2.37-.78,29.88,29.88,0,0,1-4.15-2.1c-1.63-1.25-3.47-2.13-5.1-3.36a46.17,46.17,0,0,1-10-10.35,26.29,26.29,0,0,1-4.27-10.79,45.41,45.41,0,0,1-.49-5.68c-.07-1.84-.11-3.69-.14-5.54,0-.87-.12-1.75-.1-2.63,0-.59.25-1.18.27-1.77.1-3.62.68-7.18,1-10.8a35.62,35.62,0,0,1,2.53-10.59,9.4,9.4,0,0,0,.49-1.82C17.19,119.29,17.48,119,19,118.77Z" fill="#010101"/><path d="M6.57,135.84c-.56-.14-1.12-.26-1.64-.43A1.44,1.44,0,0,1,3.84,134c0-.45,0-.92-.06-1.36-.13-.73-.25-1.45-.38-2.18s-.29-1.43-.46-2.15a7.65,7.65,0,0,0-.3-.74,2.12,2.12,0,0,1-.28-.86A23.83,23.83,0,0,0,2.2,123c-.14-1.22-.18-2.45-.25-3.67-.12-1.73-.18-3.48-.2-5.22,0-.91.46-1.8.42-2.69a23.74,23.74,0,0,1,.05-2.53c.09-.84.21-1.68.34-2.51.22-1.68.7-3.31,1-5,.18-1,.54-2,.81-3a21.34,21.34,0,0,0,.71-2.86A8.81,8.81,0,0,1,6,93.33c.34-.82.78-1.59,1.12-2.41s.64-1.65.94-2.49a13.79,13.79,0,0,1,2-3.71,16.66,16.66,0,0,0,.81-1.57c.89-1.46,2-2.81,2.73-4.32a23,23,0,0,1,1.64-2.51L17,73.88a41.23,41.23,0,0,1,2.57-3.31c.53-.66,1.05-1.33,1.57-2s1.1-1.3,1.66-1.94a10.36,10.36,0,0,1,1.41-1.23,9.65,9.65,0,0,0,1.91-1.76,9.57,9.57,0,0,1,2.24-1.73c.12-.08.33-.08.4-.2a4,4,0,0,1,1.7-1.49,15.92,15.92,0,0,0,2-1c.42-.29.89-.52,1.34-.77a5,5,0,0,0,1.28-.82,19,19,0,0,1,2-1.49,4.07,4.07,0,0,1,1.67-.68,2.53,2.53,0,0,0,1.56-.87,6.07,6.07,0,0,1,1.48-1c.54-.34,1.05-.73,1.57-1.1a5.79,5.79,0,0,1,.58-.38c1.87-.91,3.74-1.82,5.67-2.6a8.62,8.62,0,0,1,2.16-.95,12.15,12.15,0,0,0,2.19-.45l1.32-.47a6.84,6.84,0,0,1,3.84-.67c.22,0,.44-.1.67-.11l2-.12a2,2,0,0,0,.66-.14,6.91,6.91,0,0,1,2.75-.39,17.87,17.87,0,0,0,3.56-.44,27.37,27.37,0,0,1,4.6-.54c1.52,0,3.06,0,4.58.12,1.2.06,2.4.11,3.6.21.59,0,1.19-.09,1.78-.1a13.07,13.07,0,0,1,2.41.42,19.11,19.11,0,0,0,4.35.43,22,22,0,0,1,4.92.44c1.28.19,2.51.63,3.78.76a18.33,18.33,0,0,1,3.61.72c1.17.38,2.33.78,3.53,1.07,1.9.58,3.78,1.22,5.65,2,.48.17,1,.29,1.48.42s1,.29,1.49.45a3.25,3.25,0,0,1,.54.23c1,.53,2.12.94,3.21,1.39a15.22,15.22,0,0,1,3.33,2.22,3.33,3.33,0,0,1,1.09,2.2c.07.68.18,1.34.2,2-1.06.73-1,.74-1.56.41a22.34,22.34,0,0,1-2.77-2.09,22.3,22.3,0,0,0-1.88-1.29,20,20,0,0,0-2.53-1.39l-2.7-1.08-.1,0c-1.43-.49-2.81-1.07-4.28-1.44l-2.28-.62a12,12,0,0,1-1.43-.48c-.5-.2-1-.62-1.49-.65a43.12,43.12,0,0,1-4.78-1c-.93-.16-1.93,0-2.79-.58a13.85,13.85,0,0,1-3.08-.35,17.93,17.93,0,0,0-3.09-.34c-1.86,0-3.71-.14-5.56-.32-1.37-.13-2.73-.51-4.12-.58a32.33,32.33,0,0,0-3.81-.12,31.09,31.09,0,0,0-3.41.49L68,48.94c-.67.06-1.35.08-2,.17l-2,.27c-1.36.14-2.69.45-4,.67s-2.66.59-4,.86-2.65.72-4,1.11a12.3,12.3,0,0,0-3,1.15c-1.22.87-2.75,1.14-3.83,2.24a1,1,0,0,1-.29.15,104.29,104.29,0,0,0-10.49,6.33c-1.74,1.1-3.51,2.19-5.15,3.47-.91.79-1.86,1.53-2.71,2.38-.59.61-1.13,1.28-1.67,1.94s-1.09,1.3-1.58,2a1,1,0,0,1-.22.24,17.78,17.78,0,0,0-1.75,1.83c-.53.66-1,1.35-1.58,2a11.56,11.56,0,0,0-.95,1.34,3.83,3.83,0,0,1-1.08,1.23,13.91,13.91,0,0,1-1,1.76c-.35.58-.72,1.14-1.11,1.69L14.4,83.4c-.35.58-.69,1.16-1,1.77a9.35,9.35,0,0,1-.62,1.49,25.28,25.28,0,0,1-1.38,2.63c-.9,1-1.15,2.33-1.73,3.49l-.49,1-.41,1.07c-.27.71-.54,1.43-.79,2.15a37.83,37.83,0,0,0-1.09,4.44c-.74,4.76-1.78,9.49-1.67,14.34,0,.57.13,1.14.13,1.71a11.7,11.7,0,0,0-.15,1.17c.11,1.18.13,2.36.21,3.54A32.19,32.19,0,0,0,6,125.75c.26,1.16.61,2.3.8,3.48.1.59.17,1.18.25,1.77s.17,1.19.21,1.8A3.58,3.58,0,0,0,7.59,134C7.86,134.71,7.74,135,6.57,135.84Z" fill="#010101"/><path d="M146.92,136.53l-1.27-.88c-.57-.42-.63-.72-.41-1a3.62,3.62,0,0,0,.48-.48,6.24,6.24,0,0,0,.71-1.9,1.67,1.67,0,0,0,0-.38c0-.14-.09-.31,0-.42a9.24,9.24,0,0,0,1.23-3.15,18.76,18.76,0,0,0,.46-2.35c.09-.4.52-.74.52-1.16a9.81,9.81,0,0,1,.32-2.3q.27-1.12.45-2.28c.06-.46.15-.93.24-1.39a2.33,2.33,0,0,0,0-1.36c-.13-.37.13-.73.23-1.1a5.55,5.55,0,0,0,.23-2.43,3.5,3.5,0,0,1,.15-1.92c.1-.28-.08-.55,0-.82a5.87,5.87,0,0,0,0-2.36c-.21-.91-.1-1.84-.3-2.74-.18-.63-.21-1.27-.35-1.89s-.39-1.51-.63-2.26a2.62,2.62,0,0,1,0-.84,2,2,0,0,0-.21-1.16c-.22-.39-.05-.85-.09-1.28,0-.07.1-.17.05-.22-.7-.55-.09-1.37-.18-2.05-.05-.47.15-1-.15-1.41a4.11,4.11,0,0,1-.46-1.06.94.94,0,0,1,0-.86.62.62,0,0,0-.2-.81c-.29-.2-.31-.47-.44-.72s-.35-.5-.52-.74a2,2,0,0,1-.17-.27c-.32-.9-.71-1.76-1.11-2.62-.15-.32-.51-.57-.52-.94a2.33,2.33,0,0,0-.15-1,3.11,3.11,0,0,0-.32-.56,1.77,1.77,0,0,1-.43-1.76c0-.12-.09-.19-.11-.29-.05-.32-.09-.65-.14-1a.37.37,0,0,0-.15-.28c-.43-.26-.44-.73-.55-1.17a3.12,3.12,0,0,0-.88-1.42,14.2,14.2,0,0,1-1.38-1.65c-.42-.58-.76-1.2-1.13-1.81s-.57-1-.9-1.42a5,5,0,0,0-.67-.53c-.29-.26-.31-.71-.48-1a3.21,3.21,0,0,0-1.32-1.55A9.69,9.69,0,0,1,134.68,70c-.42-.42-.65-1-1.19-1.32-1-.58-1.58-1.61-2.47-2.31-.74-.54-1.39-1.18-2.16-1.67a5.74,5.74,0,0,0-1.35-.52.61.61,0,0,1-.22-.13,3.83,3.83,0,0,0-1.42-.64,4.69,4.69,0,0,1-1.42-.92c-.24-.22-.32-.66-.23-1.31a13.88,13.88,0,0,0,.11-1.39c.69-1.08.73-1.06,1.08-1a3,3,0,0,1,1.62.84c.28.26.64.43.94.68a20.33,20.33,0,0,0,2.51,1.55l0,0c.64.43,1.28.85,1.9,1.3.33.23.7.43,1,.67a3.12,3.12,0,0,1,.5.58c.16.23.17.61.44.71.87.3,1.17,1.15,1.83,1.65.38.3.9.48.92,1.1,1,.47,1.3,1.63,2.16,2.25a7.93,7.93,0,0,1,1.84,2.12c.39.58.56,1.3.9,1.91a11.06,11.06,0,0,0,1,1.6c.36.45.91.79,1.3,1.23a7.34,7.34,0,0,1,.87,1.41A41.12,41.12,0,0,1,147,82.21c.48,1.3.92,2.62,1.31,4a3,3,0,0,0,.57,1.48c.58.57.44,1.42,1.17,1.94.05,0,0,.1.06.15.33,1,.72,2,1,3a18.62,18.62,0,0,1,.7,3c.12,1,.08,2.11.23,3.13a13.28,13.28,0,0,0,.24,1.79c.22.82.58,1.63.8,2.46a.49.49,0,0,1,0,.17,19.77,19.77,0,0,0,.2,2.55c0,.55.39,1.08,0,1.65.57,1.35.09,2.74.16,4.1,0,.27.25.55.18.81-.14.5.15,1-.11,1.51a5.57,5.57,0,0,0-.34,1.95c-.15.76-.26,1.52-.34,2.29a17.54,17.54,0,0,0-.15,2.3c.09,2.48-1,4.77-1.34,7.17-.06.28,0,.58-.09.86s-.31.33-.35.51a29.22,29.22,0,0,0-.88,3.46,6.3,6.3,0,0,1-1.33,3.31,1,1,0,0,0-.16.59C148.48,136.71,148.27,136.75,146.92,136.53Z" fill="#010101"/><path d="M51.13,46.47a23.11,23.11,0,0,1,4.34-4.33,19.17,19.17,0,0,1,2.64-1.42l.75-.4.78-.36c.51-.23,1-.5,1.54-.7a27.72,27.72,0,0,1,3-1l1.53-.43,1.55-.34c1.24-.33,2.48-.68,3.75-.93s2.42-.13,3.62-.23,2.22,0,3.34-.1a19.86,19.86,0,0,1,2.67,0,10.91,10.91,0,0,1,2.65.41c1.15.32,2.36.34,3.52.66l1.54.37c.51.15,1,.33,1.52.49s1,.32,1.5.53l1.48.65a24.06,24.06,0,0,1,5,3c.15.12.27.28.41.41.55.44,1,1,1.55,1.45a3.57,3.57,0,0,1,1.33,2.36.65.65,0,0,0,.17.34c.52.7.08,1.79-.16,2.65,0,.13-.31.32-.49.45a1.17,1.17,0,0,1-.31-.17c-.3-.4-.67-.77-1-1.18a15.13,15.13,0,0,0-1.21-1.56c-1.28-1.25-2.45-2.73-4.18-3.45a9.68,9.68,0,0,1-1.43-.74,10,10,0,0,0-1.4-.78,18.4,18.4,0,0,0-3.28-1.35,12.52,12.52,0,0,0-1.85-.3c-.62-.07-1.22-.17-1.84-.21-1-.1-1.93-.47-2.92-.56a10.5,10.5,0,0,0-3.91.09,7.51,7.51,0,0,1-2.27.05,23,23,0,0,0-2.75-.09,18.11,18.11,0,0,0-2.54.75c-.87.17-1.7.41-2.56.57s-1.66.49-2.49.72-1.61.61-2.42.92-1.83.65-2.67,1.13a11.79,11.79,0,0,0-1.49.9,15.71,15.71,0,0,0-1.39,1A18,18,0,0,0,54.52,48a9.3,9.3,0,0,0-1,1.41c-.22.41-.61.58-1.55.36a1.27,1.27,0,0,1-.31-.08,7.24,7.24,0,0,1-1.38-1.22c-.2-.29,0-.61,0-.91,0,0,0,0,0-.07.27-.36.54-.7.82-1Z" fill="#010101"/><path d="M100.57,50.27c0-.58-.14-1.1-.21-1.62-.11-.74.11-1.1.56-1.28a6.11,6.11,0,0,0,.94-.42,9.34,9.34,0,0,0,2.29-2.36,3.07,3.07,0,0,0,.25-.55,1.58,1.58,0,0,1,.27-.62,11.88,11.88,0,0,0,2.87-4.72,8.86,8.86,0,0,0,.57-1.9l.23-1c0-.33.1-.66.17-1,.13-.67.64-1.3.6-2a46.79,46.79,0,0,0-.13-7.77,22.43,22.43,0,0,0-.45-2.31,5.27,5.27,0,0,0-.82-2.1,5.13,5.13,0,0,1-.58-1.77,9.7,9.7,0,0,0-2.06-3.52,16.11,16.11,0,0,1-1.95-2.59c-.23-.44-.72-.58-1-.93a16.92,16.92,0,0,0-1.39-1.42A14,14,0,0,0,99.1,9.28c-.67-.4-1.37-.75-2-1.17A9.6,9.6,0,0,0,95,7.1c-.52-.18-1-.42-1.5-.62S92.47,6.12,92,6a33.15,33.15,0,0,0-3.84-.81c-.46-.11-.92-.26-1.37-.41a6,6,0,0,0-2-.34A9.55,9.55,0,0,1,82.62,4c-.11,0-.22-.16-.33-.13-1.21.4-2.3-.38-3.48-.47a7.12,7.12,0,0,0-2.42-.2,11.83,11.83,0,0,1-2,.25A3,3,0,0,1,73,3.29a1.65,1.65,0,0,0-1.42.11,4.71,4.71,0,0,1-1.39.34,9.31,9.31,0,0,0-1.44.47,4.51,4.51,0,0,1-.52.17c-.79.17-1.6.28-2.39.49l-2.34.65c-.6.15-1.11.6-1.72.65a7.08,7.08,0,0,0-1.72.26,5.24,5.24,0,0,0-1,.44,5,5,0,0,1-2.92.88c-.18,0-.32.16-.49.21L54.1,8.4a1,1,0,0,0-.47.25,4.21,4.21,0,0,1-1.89,1.13,6.45,6.45,0,0,0-2.26,1.72l-.64.66-.59.69q-.6.68-1.23,1.32c-.4.44-.76.92-1.15,1.37a14.91,14.91,0,0,0-1.13,1.39l-.81,1.16-.39.58-.31.64c-.18.42-.24.9-.39,1.34s-.62,1.1-.89,1.68a8.37,8.37,0,0,0-.61,1.6,8.3,8.3,0,0,0-.13,1.73c0,.32,0,.64,0,1s0,.64,0,1c0,.64,0,1.28,0,1.91a16.69,16.69,0,0,0,.21,3c.63,1.82.63,3.74,1.41,5.48L43.3,39c.16.34.34.67.51,1s.33.67.53,1L45,42a9.5,9.5,0,0,0,1.65,1.58,2,2,0,0,1,.29.29,4.53,4.53,0,0,0,.89.86l1,.67A26.74,26.74,0,0,1,51,47a2.51,2.51,0,0,1,.78,1.61,8.86,8.86,0,0,0,.45,1.59c-.52,1.17-.6,1.15-1.18,1a6.41,6.41,0,0,1-2.85-1.52c-.54-.44-1.1-.84-1.61-1.31a45.16,45.16,0,0,1-3.72-3.73l-.06-.08a25.41,25.41,0,0,1-2.26-3.49,15.33,15.33,0,0,1-1-1.94,5.86,5.86,0,0,1-.39-1.34c-.08-.49.06-1-.18-1.47a5.33,5.33,0,0,1-.61-2.12L38.11,32A4.61,4.61,0,0,1,38,29.47a10.08,10.08,0,0,1,0-2.85c.1-.95.4-1.87.42-2.83a9.16,9.16,0,0,1,.5-2.54c.12-.42.25-.83.39-1.24s.38-.77.57-1.16c.29-.57.64-1.11,1-1.65s.82-1,1.19-1.49c.64-1,1.44-1.78,2.11-2.7A27.23,27.23,0,0,1,46,10.46a12.21,12.21,0,0,1,2.25-1.94,32.61,32.61,0,0,1,6.47-3.65C55.79,4.36,57,4,58.1,3.62s2.33-.61,3.49-.94A11.91,11.91,0,0,0,64.25,2c1.17-.65,2.53-.45,3.69-1.19a.82.82,0,0,1,.28-.06C69.1.6,70,.5,70.87.4S72.65.17,73.54.11a36.74,36.74,0,0,1,5.35,0,24.41,24.41,0,0,1,2.69.34c.89.18,1.78.36,2.67.47,1,.11,2,.47,3.09.57l1.11.13,1.1.18,2.23.36a.94.94,0,0,1,.28.1c1.33.75,2.86,1,4.17,1.78.84.47,1.94.54,2.56,1.44a9.4,9.4,0,0,1,1.67.78,12.39,12.39,0,0,1,1.47,1.12c1,.75,1.79,1.69,2.73,2.5.38.3.89.5,1.15.93.49.79,1.39,1.26,1.69,2.17.42,1.17,1.29,2,1.76,3.12a41.72,41.72,0,0,1,1.61,3.85c.39,1.33.91,2.63,1.22,4,.14.54.29,1.08.39,1.63s.12,1.11.17,1.66a21.23,21.23,0,0,1,0,3.29,11.11,11.11,0,0,1-.16,1.62l-.22,1.63c-.19,1.07-.41,2.15-.64,3.22-.14.5-.16,1-.31,1.55-.09.34-.41.61-.53.94a36,36,0,0,1-2.88,5.8A11.25,11.25,0,0,1,103.38,50a4.38,4.38,0,0,0-.87.74C102,51.21,101.65,51.2,100.57,50.27Z" fill="#010101"/><path d="M53.23,11.07c-.6,1-1.11,2.12-1.66,3.19-.26.52-.69,1-1,1.51a16.8,16.8,0,0,0-.85,1.89,22.51,22.51,0,0,0-1.2,3.73,17.27,17.27,0,0,0-.08,2.38c0,.73-.16,1.46-.12,2.19a11.24,11.24,0,0,0,.22,2,27.76,27.76,0,0,1,.67,3.08A6.81,6.81,0,0,0,50,33a16.19,16.19,0,0,0,1.9,3.07,12.3,12.3,0,0,0,1,1.24,12.48,12.48,0,0,0,1.15,1.15c.08.07.12.18.2.26a4.47,4.47,0,0,0,.87.81A1.81,1.81,0,0,1,56,40.84a.26.26,0,0,0,.14.19c.42.26.23,1.22.3,1.94a2.33,2.33,0,0,1-.19.6,1,1,0,0,1-.3,0,6.64,6.64,0,0,1-1.05-.48,14.54,14.54,0,0,1-1.17-.9,8.6,8.6,0,0,1-1.48-1.35,12.94,12.94,0,0,0-1.49-1.37,4,4,0,0,1-.85-.85c-.22-.34-.43-.68-.66-1a10,10,0,0,1-.68-1.13L48,35.35c-.22-.4-.52-.76-.77-1.16s-.49-.81-.69-1.23A12.83,12.83,0,0,1,46,30.78a14.18,14.18,0,0,0-.77-2.85A3.68,3.68,0,0,1,45,26.22c0-.7.26-1.38.28-2.07s-.19-1.35-.18-2a10.31,10.31,0,0,1,.33-2,24.49,24.49,0,0,1,1.17-3.82,20.46,20.46,0,0,1,1-2c.4-.78.79-1.56,1.2-2.33S49.63,10.64,50,10c.21-.38.43-.76.62-1.17s.52-.48,1.35-.17a1,1,0,0,1,.27.12c.43.39,1,.78,1.27,1.12s.13.41.18.6c0,0,0,0,0,0l-.42.6Z" fill="#010101"/><path d="M69.17,5.5c-.34.44-.64,1-1,1.42l-.89,1.47c-.28.5-.74.9-1.06,1.39s-.63,1.17-.94,1.77l-.74,1.75A13.26,13.26,0,0,0,64,15.12a12.05,12.05,0,0,0-.2,2.32c0,.36-.1.72-.17,1.07a9.85,9.85,0,0,0-.1,1.08,13.49,13.49,0,0,0,0,2,14.69,14.69,0,0,1,.25,3.17,11.36,11.36,0,0,0,.38,2.08,12.76,12.76,0,0,0,.47,1.79l.53,1.77c.37,1,.85,2.05,1.26,3.07a3.23,3.23,0,0,1,.06.33A5.1,5.1,0,0,0,67,34.9a1.68,1.68,0,0,1,.25,1.57.25.25,0,0,0,0,.23c.25.43-.36,1.21-.64,1.88,0,.1-.29.28-.44.43-.09,0-.22,0-.27-.11a6.52,6.52,0,0,1-.69-.88c-.24-.41-.37-.87-.62-1.27A8.94,8.94,0,0,1,63.82,35a6.56,6.56,0,0,0-.8-1.77,6.25,6.25,0,0,1-.79-2.15c-.2-.81-.33-1.64-.6-2.43-.07-.21-.16-.41-.24-.62l-.21-.63a11.13,11.13,0,0,1-.39-1.28A10,10,0,0,1,60.62,24a8.22,8.22,0,0,0-.43-2.78,3.94,3.94,0,0,1,0-1.64c.09-.67.3-1.31.4-2s-.11-1.31-.07-2A9.18,9.18,0,0,1,61,13.72a14,14,0,0,1,.59-1.87A19,19,0,0,1,62.3,10c.33-.65.78-1.25,1.14-1.87S64.31,6.69,64.8,6s.85-1.3,1.3-1.94c.24-.35.51-.7.73-1.09s.57-.42,1.36,0a.89.89,0,0,1,.25.16c.38.44.84.89,1.12,1.26s.1.41.13.61l0,0c-.15.15-.3.34-.46.51Z" fill="#010101"/><path d="M93.12,4.7a28.49,28.49,0,0,1,1.67,3.48,15.23,15.23,0,0,1,.41,1.87c.2.72.38,1.41.57,2.11.33,1.34.55,2.7.82,4.05.15.82.49,1.62.65,2.45a21.33,21.33,0,0,1,.16,2.4c.06.74.06,1.49.13,2.24a9.37,9.37,0,0,1-.33,3.57c-.24.77-.28,1.57-.48,2.36s-.39,1.36-.6,2-.49,1.34-.81,2a23.48,23.48,0,0,1-1.86,3.32c-.07.1-.18.17-.26.27l-.84,1.07a1.93,1.93,0,0,1-1.48,1,.34.34,0,0,0-.22.12c-.36.41-1.29.08-2,0a2.82,2.82,0,0,1-.52-.32.86.86,0,0,1,0-.29,6.15,6.15,0,0,1,.57-.89,10.36,10.36,0,0,0,.91-1c.35-.49.78-.91,1.14-1.39a7.51,7.51,0,0,0,.54-.72,3.94,3.94,0,0,0,.36-.84,12.25,12.25,0,0,1,1-1.85,10.89,10.89,0,0,0,.9-2.11,21.85,21.85,0,0,0,.3-2.4c.06-.63.34-1.22.41-1.85a5,5,0,0,0-.12-2.5,3.51,3.51,0,0,1-.09-1.44,8.87,8.87,0,0,0,.1-1.78A12.36,12.36,0,0,0,93.61,18a17,17,0,0,1-.36-1.69c-.2-1.13-.51-2.24-.79-3.37-.16-.63-.2-1.3-.36-1.94a18.77,18.77,0,0,0-.77-2.22,18.79,18.79,0,0,0-.87-1.94,6.46,6.46,0,0,0-.61-1c-.2-.26-.14-.59.51-1.2a1,1,0,0,1,.22-.2,10,10,0,0,1,1.55-.67c.31-.08.45.09.65.16,0,0,0,0,0,0l.34.74Z" fill="#010101"/><path d="M105.67,23.87a15.75,15.75,0,0,1,.29,2.34,6.88,6.88,0,0,1-.22,1.17c-.06.44-.06.88-.11,1.32-.06.84-.22,1.66-.28,2.49,0,.5.1,1,.09,1.55a10.11,10.11,0,0,1-.26,1.44c-.07.44-.13.88-.2,1.36a4,4,0,0,1-.65,2.12c-.31.4-.31.94-.56,1.38a13.7,13.7,0,0,1-1.35,2.3l-.71,1-.86.86c-.06.06-.15.08-.21.13a7.1,7.1,0,0,0-.67.56,1,1,0,0,1-1.18.19.15.15,0,0,0-.16,0c-.28.21-1-.41-1.45-.74a4.35,4.35,0,0,1-.37-.48c0-.08,0-.19,0-.23a2.22,2.22,0,0,1,.39-.51c.19-.16.45-.23.64-.4s.56-.41.83-.62a2,2,0,0,0,.68-.78,3.13,3.13,0,0,1,.74-.95l.45-.49a4.79,4.79,0,0,0,.33-.58,9.7,9.7,0,0,0,.3-1.4,7,7,0,0,1,.5-1,2.1,2.1,0,0,0,.11-1.47,1.31,1.31,0,0,1,.11-.83c.1-.33.38-.63.41-1s-.24-.71-.27-1a6.77,6.77,0,0,1,0-1c.07-.67.09-1.34.15-2,0-.38.2-.77.25-1.16a9.23,9.23,0,0,0,0-1.39,10.37,10.37,0,0,0-.11-1.25,2.54,2.54,0,0,0-.17-.67c-.08-.18.11-.36.94-.66a1.52,1.52,0,0,1,.28-.09,14,14,0,0,1,1.67-.22c.3,0,.35.12.52.19,0,0,0,0,0,0l0,.5Z" fill="#010101"/><path d="M114.8,59.69c.26.47.53.93.74,1.38.31.66.16,1-.22,1.26a6.32,6.32,0,0,0-.81.46,14.64,14.64,0,0,0-2,2.06,2.24,2.24,0,0,0-.27.45c-.1.18-.16.41-.33.51-1.48.78-2.47,2.06-3.76,3-.89.71-1.64,1.59-2.51,2.33-.46.36-1.16.44-1.56.86a19,19,0,0,1-2.54,2.13c-.92.61-1.87,1.18-2.77,1.81-.55.37-1.1.76-1.68,1.09a5.37,5.37,0,0,0-1.56,1.13,3.67,3.67,0,0,1-1.42.72,13.67,13.67,0,0,0-3,1.73,6.64,6.64,0,0,1-2.44,1.24c-.39.11-.64.44-1,.59a15.09,15.09,0,0,0-3,1.47c-1.1.72-2.35,1.13-3.46,1.84-.77.5-1.62.83-2.43,1.25-1,.52-1.92,1.12-2.9,1.64a4.76,4.76,0,0,1-1.17.34,4.36,4.36,0,0,0-1.57.63,5.23,5.23,0,0,1-1.76.54c-.09,0-.23-.06-.3,0-.73.86-1.91.44-2.84.71a7.05,7.05,0,0,0-1.95.48,7.74,7.74,0,0,1-1.48.65,1.8,1.8,0,0,1-1.18.1,1.16,1.16,0,0,0-1.13.32,2.9,2.9,0,0,1-1,.53,12,12,0,0,0-1.12.59c-.13.06-.26.14-.4.19-1.29.41-2.58.83-3.87,1.22-.49.14-.93.51-1.45.51a5.06,5.06,0,0,0-1.46.1,8.75,8.75,0,0,0-.87.27,3.2,3.2,0,0,1-2.53.24c-.15,0-.29.07-.44.07l-1.34,0a.72.72,0,0,0-.43.1,2.87,2.87,0,0,1-1.78.33,6.43,6.43,0,0,0-2.28.53,22.37,22.37,0,0,1-5.85,1.39q-1.17.13-2.34.33c-.38.07-.73.28-1.11.39a5.79,5.79,0,0,1-1.61,0,7.41,7.41,0,0,0-2.82.48,13.22,13.22,0,0,1-3.15.73,15.84,15.84,0,0,0-2.49.31c-1.55.55-3.17.38-4.74.66-1.27.23-2.56.32-3.83.56a12.72,12.72,0,0,0-1.92.64,1.51,1.51,0,0,1-.37.06,9,9,0,0,0-2.17.54,8.57,8.57,0,0,1-2.47.24,1.91,1.91,0,0,1-1.44-.88c-.34-.43-.69-.81-1-1.19,0-1.29,0-1.28.46-1.46A5.68,5.68,0,0,1,9,99.59c.51,0,1-.1,1.54-.11a23.52,23.52,0,0,0,3.87-.65h.07c1-.17,2-.35,3-.55.53-.1,1-.25,1.56-.35a4.36,4.36,0,0,1,1,0c.37,0,.76.24,1.09.08,1-.51,2.16-.3,3.23-.55.62-.14,1.21-.5,1.89-.19,1.3-.61,2.75-.29,4.06-.76a17,17,0,0,1,3.63-.72c.92-.1,1.86,0,2.78-.08a14.88,14.88,0,0,0,2.48-.39c.75-.21,1.44-.64,2.17-.87a15.91,15.91,0,0,1,2.13-.47l5.45-1c1.81-.3,3.63-.56,5.43-.91a5.69,5.69,0,0,0,2-.52c.86-.58,1.93-.47,2.71-1.25.06,0,.14,0,.21-.06,1.31-.37,2.6-.83,3.9-1.26s2.59-.83,3.9-1.21,2.73-.52,4-1a21.75,21.75,0,0,0,2.26-.83,32.09,32.09,0,0,0,2.94-1.71.7.7,0,0,1,.2-.08,21.72,21.72,0,0,0,3.11-1.3c.68-.26,1.18-.93,2-.87,1.42-1.2,3.23-1.58,4.79-2.51.3-.18.51-.55.85-.66.64-.21,1.08-.8,1.77-.91a9,9,0,0,0,2.35-1.1c.91-.46,1.79-1,2.66-1.49a15.87,15.87,0,0,0,2.46-1.78c2.44-2.11,5.3-3.61,7.69-5.76.28-.26.48-.6.77-.84s.53-.18.71-.35a24.79,24.79,0,0,0,3.4-3.24,13.89,13.89,0,0,1,3.41-3.25,1.65,1.65,0,0,0,.52-.62C113.31,59,113.55,59.05,114.8,59.69Z" fill="#010101"/><path d="M10.33,88.55c.15-.51.29-1,.42-1.48.22-.68.49-.84.8-.71a3.73,3.73,0,0,0,.66.28,6.68,6.68,0,0,0,2.14,0,2.11,2.11,0,0,0,.38-.17c.14-.06.28-.2.42-.16a10.31,10.31,0,0,0,3.59,0c.85-.07,1.67-.35,2.51-.46.44-.06.93.25,1.35.08,1.56-.64,3.25-.6,4.85-1,.49-.12,1-.21,1.48-.3a2.76,2.76,0,0,0,1.37-.48c.33-.26.78-.14,1.19-.19A5.86,5.86,0,0,0,34,83.31a4.07,4.07,0,0,1,2-.53c.31,0,.52-.27.81-.33a7.68,7.68,0,0,0,2.4-.78c.87-.5,1.85-.69,2.7-1.23.59-.37,1.24-.6,1.84-.92s1.42-.91,2.15-1.33a2.85,2.85,0,0,1,.87-.27,2.27,2.27,0,0,0,1.15-.54,3,3,0,0,1,1.3-.48c.07,0,.2.06.24,0,.42-.83,1.42-.43,2.1-.71C52,76,52.64,76,53,75.65a4.93,4.93,0,0,1,1-.7,1.18,1.18,0,0,1,.91-.17.69.69,0,0,0,.79-.39c.17-.33.46-.41.69-.59s.47-.45.7-.67a2.68,2.68,0,0,1,.26-.23c.88-.53,1.75-1.07,2.61-1.63.32-.21.54-.61.93-.69A2.91,2.91,0,0,0,62,70.25a4.39,4.39,0,0,0,.56-.4,2,2,0,0,1,1.82-.71c.13,0,.19-.11.3-.15l1-.26a.41.41,0,0,0,.28-.18c.25-.47.74-.55,1.2-.71a3.46,3.46,0,0,0,1.46-1A16.22,16.22,0,0,1,72.24,64c.51-.31,1-.63,1.5-1a5.64,5.64,0,0,0,.59-.69c.29-.3.76-.34,1.13-.52a4,4,0,0,0,1.71-1.36,8.79,8.79,0,0,1,1.75-1.75c.48-.42,1.12-.64,1.5-1.18.71-1,1.87-1.54,2.71-2.43.69-.71,1.43-1.34,2.09-2.08A8,8,0,0,0,86,51.65a.74.74,0,0,1,.18-.21,5.09,5.09,0,0,0,.95-1.4,5.11,5.11,0,0,1,1.27-1.35,1.5,1.5,0,0,1,1.39,0c.49.15.94.24,1.39.35.9.91.88.93.75,1.28a3.24,3.24,0,0,1-1.18,1.49c-.32.25-.57.58-.87.85a17.44,17.44,0,0,0-2,2.34l0,0-1.61,1.8c-.28.31-.53.65-.82,1a3.41,3.41,0,0,1-.65.48c-.25.15-.65.12-.78.39-.41.84-1.29,1.13-1.88,1.76-.34.36-.57.89-1.2.89-.57,1-1.76,1.27-2.45,2.14a9.74,9.74,0,0,1-2.24,1.87c-.62.39-1.35.6-2,1a9.62,9.62,0,0,0-1.65,1.09c-.46.4-.79,1-1.24,1.39a8.53,8.53,0,0,1-1.41,1c-1.24.76-2.51,1.47-3.8,2.15s-2.62,1.26-3.92,1.89c-.5.24-1.09.34-1.45.81-.52.65-1.39.71-1.8,1.53,0,.06-.1.07-.15.09L56,77.76c-.95.5-1.92,1-2.92,1.4s-2.13.59-3.12,1c-.58.26-1.19.44-1.74.75-.78.44-1.51,1-2.27,1.5a.41.41,0,0,1-.15.07,18.55,18.55,0,0,0-2.51,1c-.56.16-.95.76-1.64.57-1.17,1-2.7,1-4,1.55-.26.11-.46.42-.75.45-.54,0-1,.49-1.54.41a6.72,6.72,0,0,0-2,.4c-.8.14-1.6.3-2.38.51a17.55,17.55,0,0,0-2.34.72,12.1,12.1,0,0,1-1.86.57c-.63.13-1.27.23-1.91.31l-1.93.25c-.64.08-1.28.15-1.92.26-.3.05-.59.22-.89.26s-.44-.16-.64-.12c-1.25.23-2.54.07-3.78.41a6.55,6.55,0,0,1-3.82-.07,1.15,1.15,0,0,0-.66,0C10.72,90.09,10.59,89.9,10.33,88.55Z" fill="#010101"/><path d="M127.07,78.29a44.9,44.9,0,0,1,4.16,4.58c.6.82,1.12,1.7,1.64,2.57s1.28,2,1.86,3l1.64,2.87c.49,1,1,2,1.48,2.95.66,1.16,1.3,2.34,1.9,3.54.27.57.53,1.15.76,1.74l.61,1.8c.38,1.1.87,2.18,1.23,3.3.29.88.58,1.77.84,2.67a12.86,12.86,0,0,1,.58,2.74c.12,1.24.46,2.44.7,3.66a26.94,26.94,0,0,1,.43,3.23l.33,3.25c.13,2,.08,3.9.12,5.85,0,.19,0,.38,0,.57,0,.7-.13,1.39-.15,2.09a4.9,4.9,0,0,1-.69,2.58.82.82,0,0,0-.1.37c-.05.85-.91,1.41-1.46,2.06-.08.1-.36.12-.55.18a2.23,2.23,0,0,1-.13-.39c0-.59-.05-1.17,0-1.75.05-.74.19-1.47.23-2.21,0-1,.25-2,.26-3a16.92,16.92,0,0,0-.09-3,10.48,10.48,0,0,1-.06-1.77l0-.89-.06-.89c-.1-1.29-.13-2.59-.3-3.87,0-.33-.09-.67-.15-1s-.18-.66-.28-1c-.18-.66-.37-1.31-.51-2a13.87,13.87,0,0,1-.26-1.59l-.11-.8-.19-.79a19.34,19.34,0,0,0-1.35-4,10,10,0,0,1-.88-2.29,21.57,21.57,0,0,0-.86-2.87c-.41-.87-1-1.65-1.48-2.49s-.89-1.72-1.33-2.59c-.83-1.74-1.88-3.36-2.83-5-.59-.9-1.07-1.88-1.64-2.8-.74-1.06-1.49-2.12-2.32-3.11l-1.13-1.34-1.2-1.28a15,15,0,0,0-1.43-1.33,1.18,1.18,0,0,1-.34-1.53A.52.52,0,0,1,124,78a5.1,5.1,0,0,1,1.26-.89c.28-.12.56.1.84.17l.06,0c.32.31.61.62.91.93Z" fill="#010101"/></g></g></svg>