<svg xmlns="http://www.w3.org/2000/svg" viewBox="0 0 12.18 16.76"><title>Asset 4</title><g id="Layer_2" data-name="Layer 2"><g id="Layer_1-2" data-name="Layer 1"><path d="M11.79,2.53A25,25,0,0,1,10.32,4.6a7.31,7.31,0,0,1-1,.81c-.36.33-.68.69-1,1-.64.67-1.33,1.29-2,2-.38.42-.63,1-1,1.44a9.3,9.3,0,0,1-1.45,1.09,7.53,7.53,0,0,1-.86.49l-.12.06-.06,0,0,0h0l.12,0h0l-.08.05,0,0s0,.06-.07,0l-.24-.35a.9.9,0,0,0-.07-.27,1.81,1.81,0,0,0-.26-.39c-.15-.13-.21-.09-.11-.11s.08,0,.23-.08a1.14,1.14,0,0,0,.33-.23A3.82,3.82,0,0,0,3,9.71l.21-.22s0,0,0,0l.09,0A3.31,3.31,0,0,1,4,10a3.74,3.74,0,0,0,1.29.54l2.42,1c.74.29,1.49.6,2.25,1,.08,0,.13.12.2.16a5.4,5.4,0,0,0,.81.48,1.15,1.15,0,0,1,.75,1.15.19.19,0,0,0,.11.18c.37.26,0,1.26-.34,1.84a3.45,3.45,0,0,1-.49.41,1.51,1.51,0,0,1-.22,0,1.68,1.68,0,0,1-.5-.18,5.32,5.32,0,0,0-.62-.48c-.69-.3-1.24-1-2.13-1.06a3.51,3.51,0,0,1-1.32-.6,12.25,12.25,0,0,0-1.46-.7c-.55-.17-1.18-.16-1.75-.35a7.79,7.79,0,0,1-1.28-.79,7.64,7.64,0,0,1-1-.78,2.24,2.24,0,0,1-.38-.46.74.74,0,0,1-.1-.16,1.48,1.48,0,0,1-.1-.27A1.82,1.82,0,0,1,0,10.33,2.13,2.13,0,0,1,.4,9.09a2,2,0,0,1,.18-.23l.14-.15L1,8.42a.77.77,0,0,0,.21-.17.41.41,0,0,1,.1-.09l.06,0h0l.14-.06h0l.05,0A.77.77,0,0,1,1.86,8c.25-.13.64-.11.9-.39s.28-.72.48-1A4.88,4.88,0,0,1,4,5.72L5.54,4c.31-.31.74-.53,1.06-.84A13.25,13.25,0,0,0,7.67,2c.31-.37.6-.76.87-1.15A3.13,3.13,0,0,0,9,.14c.08-.2.38-.22,1.24.18a2.37,2.37,0,0,1,.28.15c.5.37,1.07.77,1.44,1.11s.2.36.27.54c0,0,0,0,0,0l-.35.4Z" fill="#010101"/></g></g></svg>