<svg xmlns="http://www.w3.org/2000/svg" viewBox="0 0 104.13 43.09"><title>Asset 5</title><g id="Layer_2" data-name="Layer 2"><g id="Layer_1-2" data-name="Layer 1"><path d="M99.49,0c1.1.22,2.17.51,3.15.81,1.43.46,1.71,1,1.35,1.48a8.21,8.21,0,0,0-.77,1,10.57,10.57,0,0,0-.79,3.42,2.83,2.83,0,0,0,.16.67c.06.25.28.55.12.75-1.4,1.67-1.64,3.58-2.43,5.36a12.21,12.21,0,0,0-.66,2,15.19,15.19,0,0,1-.69,2c-.33.64-1.35.93-1.49,1.64-.64,2.69-2.66,4.64-4.3,6.71a16.51,16.51,0,0,1-1.65,1.79,4.18,4.18,0,0,0-1.4,1.9c-.21.68-1,.77-1.61,1.1a17.08,17.08,0,0,0-1.81,1.1,7.55,7.55,0,0,0-1.51,1.48,4,4,0,0,1-1.25,1.11,6.34,6.34,0,0,1-1.63.52c-.51.08-.69.66-1.13.84-.64.22-1.29.43-1.9.69a8.25,8.25,0,0,0-.89.45,5.45,5.45,0,0,0-.85.53,10,10,0,0,1-2.08,1.13,10.56,10.56,0,0,0-2.14,1,20.25,20.25,0,0,1-3.05,1.27c-1.22.59-2.45,1.19-3.72,1.69a3.08,3.08,0,0,1-1.48,0,2.9,2.9,0,0,0-2,.35c-.67.43-1.48.1-2.22,0-.12,0-.27-.28-.36-.17-1.07,1.31-2.36-.25-3.5-.31-.79-.06-1.61-.73-2.37-.34a5.07,5.07,0,0,1-1.89.39,1.41,1.41,0,0,1-1.35-.6A.86.86,0,0,0,50,41.59c-.47.44-.92.28-1.38.38s-1,.3-1.48.45a2.1,2.1,0,0,1-.54.12l-2.4-.07-2.42-.16c-.61,0-1.3.4-1.85,0a4.26,4.26,0,0,0-1.6-.91,4.91,4.91,0,0,0-1.09-.09,2.34,2.34,0,0,1-2.77-1.42c-.1-.22-.33-.09-.48-.2-.45-.35-.88-.72-1.31-1.08a.48.48,0,0,0-.49-.14c-.85.31-1.41-.3-2-.78a4.27,4.27,0,0,0-2.61-.92A10.3,10.3,0,0,1,24,35.92,16.69,16.69,0,0,1,20.92,34c-.73-.61-1.47-1.2-2.25-1.74a9.79,9.79,0,0,0-1.38-.5c-.63-.27-.78-1.1-1.12-1.66a7.15,7.15,0,0,0-1.1-1.33,3.8,3.8,0,0,0-1.46-1,4.59,4.59,0,0,1-1.68-1.12,15.58,15.58,0,0,1-1.34-1.47,8,8,0,0,1-.8-1.32,3.07,3.07,0,0,0-.93-1.22A5.6,5.6,0,0,1,7.1,20.32a22.41,22.41,0,0,0-1.22-2.68C5,16.28,4.55,14.76,3.82,13.32a16.9,16.9,0,0,0-1.64-2.1A.9.9,0,0,1,2,10.79,8.78,8.78,0,0,0,.64,8.19,6.24,6.24,0,0,1,0,5c0-.64.67-1.33,1.93-1.91,1-.45,1.79-.88,2.65-1.25C7.35,2,7.34,2,7.69,2.45a3.29,3.29,0,0,1,.65,2.48,12.83,12.83,0,0,0,.25,1.63,10.25,10.25,0,0,0,1.65,3.87s0,.05,0,.07a25.46,25.46,0,0,0,1.57,2.8c.28.47.7.88,1,1.33a2.93,2.93,0,0,1,.3,1c.07.37-.29,1,.11,1.17,1.25.57,1.14,1.88,2,2.66.45.47,1.32.6,1,1.63,1.57.49,1.62,2.25,3,2.84a9.6,9.6,0,0,1,3,2.16c.64.66,1.09,1.61,1.78,2.29a5.83,5.83,0,0,0,2.17,1.43c.74.3,1.76,0,2.53.22a10.28,10.28,0,0,1,2.08.8c.43.21.85.44,1.29.63L33.4,32l1.33.59,1.38.53,1.37.57c.46.19.93.35,1.4.53.94.33,1.88.74,2.87,1,.74.2,1.48.74,2.29.35,1.13-.53,2.17.38,3.31-.67.08-.08.16,0,.24,0,1.49.14,3,0,4.51.06a39.54,39.54,0,0,1,4.49.11,35.32,35.32,0,0,0,4.57.52,12.81,12.81,0,0,0,2.62-.28,24.85,24.85,0,0,0,3.38-1.7.34.34,0,0,1,.22,0c1.26.08,2.31-.66,3.47-.89.77-.16,1.19-1.21,2.22-.65a4.21,4.21,0,0,1,2.42-1.52,9.79,9.79,0,0,0,2.56-1.13c.29-.25.34-.87.72-.94a1.81,1.81,0,0,0,.86-.54,1.19,1.19,0,0,1,.93-.44A2,2,0,0,0,81.89,27a8.3,8.3,0,0,1,1-.85,13.12,13.12,0,0,0,2.55-1.88,9.25,9.25,0,0,0,1.85-2.57,25.81,25.81,0,0,1,2.73-4.17,17.66,17.66,0,0,0,2.51-4.36c.15-.38,0-.85.19-1.22s.64-.33.72-.6c.47-1.59,1.43-3.06,1.38-4.81a7,7,0,0,1,1.42-4.86c.2-.26.08-.57,0-.85C96.14.32,96.54.26,99.49,0Z" fill="#010101"/></g></g></svg>